<?xml version="1.0" standalone="no"?>
<!DOCTYPE svg PUBLIC "-//W3C//DTD SVG 20010904//EN"
 "http://www.w3.org/TR/2001/REC-SVG-20010904/DTD/svg10.dtd">
<svg version="1.0" xmlns="http://www.w3.org/2000/svg"
 width="16.000000pt" height="16.000000pt" viewBox="0 0 16.000000 16.000000"
 preserveAspectRatio="xMidYMid meet">
<metadata>
Created by potrace 1.11, written by Peter Selinger 2001-2013
</metadata>
<g transform="translate(0.000000,16.000000) scale(0.002286,-0.002286)"
fill="#000000" stroke="none">
<path d="M1385 6412 c-93 -9 -219 -65 -298 -131 -53 -44 -127 -132 -127 -150
0 -6 -4 -11 -10 -11 -5 0 -10 -9 -10 -20 0 -11 -4 -20 -9 -20 -5 0 -11 -10
-14 -22 -3 -13 -13 -50 -23 -83 -15 -55 -16 -234 -18 -2160 -1 -1530 1 -2118
10 -2165 43 -245 237 -436 484 -477 14 -2 302 -5 641 -6 l616 -2 437 -436 436
-437 436 437 437 436 611 1 c336 0 629 4 651 8 176 31 348 157 424 310 70 142
65 -39 66 2281 0 1557 -2 2109 -11 2165 -34 214 -194 396 -409 462 l-70 22
-2110 1 c-1160 0 -2123 -1 -2140 -3z m2224 -967 c290 -36 553 -259 641 -541
39 -128 46 -265 20 -395 -46 -228 -205 -439 -404 -536 -152 -75 -202 -87 -366
-87 -154 1 -233 18 -352 79 -209 106 -376 318 -415 525 -2 14 -8 41 -12 60
-14 67 -4 233 19 322 82 304 367 549 670 575 36 3 66 6 67 7 4 3 77 -2 132 -9z
m131 -1959 c14 -3 59 -10 100 -15 146 -21 324 -60 474 -106 499 -151 826 -379
915 -637 15 -42 19 -88 20 -224 l2 -170 -1751 0 -1752 0 4 180 c4 156 7 188
26 235 71 178 254 340 537 475 50 24 108 49 130 57 22 7 45 16 50 20 20 13
300 100 365 113 286 58 302 61 420 72 36 4 67 8 68 10 6 4 364 -4 392 -10z"/>
</g>
</svg>
